<?xml version="1.0" encoding="utf-8"?>
<!-- Generator: Adobe Illustrator 17.0.0, SVG Export Plug-In . SVG Version: 6.00 Build 0)  -->
<!DOCTYPE svg PUBLIC "-//W3C//DTD SVG 1.1//EN" "http://www.w3.org/Graphics/SVG/1.1/DTD/svg11.dtd">
<svg version="1.1" id="Layer_1" xmlns="http://www.w3.org/2000/svg" xmlns:xlink="http://www.w3.org/1999/xlink" x="0px" y="0px"
	 width="135px" height="25px" viewBox="0 0 135 25" enable-background="new 0 0 135 25" xml:space="preserve">
<g>
	<path fill="#E64139" d="M22.154,3.388c0,0.185,0,0.371,0,0.556c-0.121,0.683-0.549,1.161-1.035,1.619
		c-1.379,1.302-2.738,2.624-4.112,3.931c-0.14,0.133-0.164,0.24-0.103,0.422c1.167,3.504,2.326,7.011,3.491,10.516
		c0.047,0.141,0.029,0.228-0.078,0.333c-0.676,0.665-1.344,1.339-2.014,2.009c-0.045,0.045-0.093,0.085-0.152,0.14
		c-1.873-3.042-3.739-6.071-5.606-9.103c-0.041,0.026-0.06,0.035-0.075,0.049c-1.549,1.485-3.099,2.969-4.642,4.46
		c-0.057,0.055-0.088,0.178-0.075,0.261c0.127,0.816,0.257,1.632,0.406,2.445c0.045,0.245,0.022,0.428-0.185,0.594
		c-0.199,0.16-0.368,0.357-0.548,0.54c-0.424,0.43-0.847,0.862-1.27,1.293c-0.014,0-0.029,0-0.043,0
		c-0.001-0.021,0.003-0.044-0.003-0.063C5.622,22,5.138,20.61,4.644,19.223c-0.027-0.076-0.124-0.15-0.206-0.179
		c-0.89-0.319-1.783-0.632-2.676-0.942c-0.503-0.174-1.008-0.341-1.512-0.512c0-0.014,0-0.029,0-0.043
		c0.053-0.045,0.11-0.086,0.159-0.135c0.596-0.594,1.192-1.188,1.784-1.786c0.092-0.093,0.173-0.131,0.314-0.106
		c0.87,0.153,1.741,0.295,2.614,0.428c0.087,0.013,0.216-0.025,0.276-0.087c1.466-1.518,2.926-3.042,4.386-4.565
		c0.037-0.039,0.067-0.085,0.109-0.138c-3.041-1.872-6.066-3.735-9.09-5.598c0.01-0.026,0.012-0.042,0.022-0.051
		c0.725-0.727,1.448-1.456,2.179-2.177c0.043-0.043,0.156-0.051,0.222-0.03c0.462,0.143,0.92,0.298,1.379,0.45
		c3.054,1.011,6.108,2.02,9.161,3.035c0.178,0.059,0.296,0.063,0.443-0.091c1.31-1.381,2.639-2.745,3.945-4.129
		c0.454-0.481,0.929-0.901,1.604-1.021c0.185,0,0.371,0,0.556,0c0.047,0.014,0.093,0.032,0.14,0.042
		c0.56,0.117,1.023,0.4,1.321,0.885C21.946,2.752,22.031,3.082,22.154,3.388z"/>
	<g>
		<path fill="#E64139" d="M33.854,7.436h-4.272l0.6-3.024h12.025L41.63,7.436h-4.32l-2.472,13.153h-3.457L33.854,7.436z"/>
		<path fill="#E64139" d="M52.79,13.724h-5.761l-0.743,3.912h6.456l-0.552,2.952h-9.913l3.072-16.177h9.577L54.35,7.364h-6.097
			l-0.672,3.456h5.761L52.79,13.724z"/>
		<path fill="#E64139" d="M58.933,4.724c1.08-0.264,2.713-0.432,4.321-0.432c1.536,0,3.121,0.24,4.249,0.936
			c1.056,0.624,1.8,1.656,1.8,3.168c0,2.4-1.608,3.888-3.672,4.56v0.096c0.96,0.408,1.368,1.488,1.536,2.952
			c0.191,1.8,0.336,3.912,0.624,4.584h-3.553c-0.144-0.432-0.312-1.824-0.479-3.816c-0.145-1.968-0.816-2.568-2.185-2.568h-1.056
			l-1.201,6.385h-3.433L58.933,4.724z M61.022,11.612h1.439c1.872,0,3.24-1.128,3.24-2.712c0-1.296-1.104-1.872-2.472-1.872
			c-0.648,0-1.057,0.048-1.344,0.12L61.022,11.612z"/>
		<path fill="#E64139" d="M74.077,4.675c1.152-0.216,2.641-0.384,4.249-0.384c1.68,0,2.928,0.216,4.008,0.864
			c1.08,0.552,1.872,1.584,1.872,2.952c0,2.04-1.512,3.336-3.264,3.84v0.072c1.56,0.48,2.544,1.752,2.544,3.528
			c0,1.728-0.937,3-2.208,3.84c-1.368,0.912-3.408,1.296-6.097,1.296c-1.824,0-3.288-0.12-4.08-0.288L74.077,4.675z M74.941,17.924
			c0.408,0.048,0.816,0.072,1.32,0.072c1.872,0,3.576-0.744,3.576-2.544c0-1.608-1.344-2.089-2.952-2.089h-1.08L74.941,17.924z
			 M76.334,10.844h1.151c1.896,0,3.192-0.816,3.192-2.185c0-1.176-0.96-1.68-2.28-1.68c-0.6,0-1.08,0.048-1.344,0.12L76.334,10.844z
			"/>
		<path fill="#E64139" d="M90.565,16.388l-1.921,4.2h-3.672l7.872-16.177h4.44l1.896,16.177h-3.624l-0.336-4.2H90.565z
			 M95.077,13.748l-0.312-3.479c-0.072-0.888-0.168-2.184-0.24-3.168h-0.048c-0.408,0.984-0.864,2.232-1.296,3.168l-1.608,3.479
			H95.077z"/>
		<path fill="#E64139" d="M102.133,20.588l3.072-16.177h4.057l2.136,6.168c0.648,2.064,1.08,3.744,1.464,5.52h0.072
			c0.072-1.656,0.288-3.432,0.744-5.808l1.104-5.88h3.216l-3.048,16.177h-3.576l-2.257-6.456c-0.72-2.184-1.152-3.648-1.584-5.641
			l-0.072,0.024c-0.191,1.561-0.576,3.865-1.056,6.409l-1.057,5.664H102.133z"/>
		<path fill="#E64139" d="M132.686,19.844c-1.248,0.408-3.192,0.912-5.232,0.912c-2.232,0-4.057-0.576-5.4-1.776
			c-1.296-1.151-2.04-2.928-2.04-4.992c0-3.024,1.248-5.64,3.313-7.392c1.823-1.512,4.32-2.352,7.128-2.352
			c2.112,0,3.673,0.408,4.297,0.72l-1.032,2.928c-0.744-0.336-1.992-0.672-3.433-0.672c-1.608,0-3.048,0.456-4.128,1.296
			c-1.393,1.104-2.328,3.024-2.328,5.232c0,2.713,1.607,4.081,4.152,4.081c0.792,0,1.368-0.12,1.752-0.288l0.648-3.408h-2.497
			l0.528-2.76h5.881L132.686,19.844z"/>
	</g>
</g>
</svg>
