<?xml version="1.0" encoding="utf-8"?>
<!-- Generator: Adobe Illustrator 17.0.0, SVG Export Plug-In . SVG Version: 6.00 Build 0)  -->
<!DOCTYPE svg PUBLIC "-//W3C//DTD SVG 1.1//EN" "http://www.w3.org/Graphics/SVG/1.1/DTD/svg11.dtd">
<svg version="1.1" id="Layer_1" xmlns="http://www.w3.org/2000/svg" xmlns:xlink="http://www.w3.org/1999/xlink" x="0px" y="0px"
	 width="32px" height="32px" viewBox="0 0 32 32" enable-background="new 0 0 32 32" xml:space="preserve">
<g>
	<path d="M7.581,25.361c-2.62,1.541-5.319,3.137-5.497,6.074h27.833c-0.174-2.934-2.876-4.532-5.498-6.074
		c-2.567-1.51-4.989-2.94-5.058-5.472c1.582-1.024,2.605-2.635,3.263-4.247c1.577-0.246,3.787-1.771,3.784-3.703
		c-0.002-1.578-1.395-2.432-1.455-2.468c-0.112-0.067-0.247-0.087-0.375-0.053l-0.692,0.182c0.361-3.367-0.855-6.188-3.444-7.8
		c-2.644-1.648-6.206-1.648-8.468,0.001c-0.007,0.005-0.01,0.013-0.017,0.019c-0.905-0.056-1.682,0.207-2.3,0.809
		C8.021,4.221,7.953,7.694,8.052,9.585L7.421,9.419C7.293,9.384,7.159,9.404,7.046,9.472c-0.059,0.036-1.452,0.89-1.454,2.468
		c-0.003,1.887,2.105,3.385,3.673,3.683c0.671,1.65,1.729,3.291,3.371,4.315C12.537,22.439,10.131,23.861,7.581,25.361z
		 M23.788,10.635l0.819-0.216c0.277,0.217,0.825,0.746,0.826,1.523c0.002,1.154-1.276,2.196-2.408,2.592
		C23.564,12.832,23.736,11.291,23.788,10.635z M6.566,11.941c0.001-0.768,0.552-1.303,0.828-1.522l0.712,0.187
		c0.049,0.637,0.216,2.175,0.751,3.881C7.756,14.063,6.565,13.056,6.566,11.941z M9.075,10.498c0.788-0.29,3.652-1.497,4.424-3.984
		c1.126,1.548,3.09,2.55,4.966,3.19c-0.31,0.065-0.515,0.193-0.515,0.193s0.196,0.166,0.48,0.317
		c0.286,0.152,0.659,0.306,1.038,0.401c0.379,0.099,0.757,0.16,1.075,0.176c0.296,0.043,0.566,0.017,0.566,0.017
		s-0.087-0.209-0.308-0.455c0.847,0.187,1.563,0.299,2.004,0.357c-0.163,1.859-1.162,8.916-6.861,9.281
		C10.008,19.605,9.177,11.932,9.075,10.498z M11.746,23.687c2.531-0.37,3.73-2.055,4.111-2.725c0.021,0.001,0.041,0.005,0.062,0.006
		c0.01,0.001,0.019,0.001,0.029,0.001l0,0h0h0.001l0,0c0.01,0,0.019,0,0.029-0.001c0.917-0.055,1.727-0.258,2.442-0.57
		c0.184,1.489,1.033,2.623,2.172,3.587c-0.946,1.663-2.553,2.677-4.377,2.717c-1.935,0.036-3.699-0.981-4.797-2.74
		C11.525,23.869,11.643,23.782,11.746,23.687z"/>
	<path d="M14.05,9.898c0,0-0.196,0.166-0.48,0.317c-0.286,0.152-0.659,0.306-1.038,0.401c-0.379,0.099-0.757,0.16-1.075,0.176
		c-0.296,0.043-0.566,0.017-0.566,0.017s0.092-0.229,0.338-0.491c0.124-0.12,0.286-0.236,0.469-0.345
		c0.183-0.105,0.393-0.17,0.602-0.243c0.426-0.101,0.868-0.11,1.199-0.034C13.832,9.757,14.05,9.898,14.05,9.898z"/>
	<circle cx="12.471" cy="12.025" r="0.662"/>
	<circle cx="19.529" cy="12.025" r="0.662"/>
	<path d="M13.923,17.32c0,0,2.118,1.837,4.195,0"/>
	<path d="M15.299,12.651v2.783c0,0,0.42,1.021,1.402,0.21"/>
</g>
</svg>
